<svg width="770" height="690" viewBox="0 0 770 690" fill="none" xmlns="http://www.w3.org/2000/svg">
<path d="M103.054 149.758C103.871 150.472 104.645 151.233 105.372 152.038C109.171 156.234 111.64 161.462 112.468 167.061C113.296 172.66 112.446 178.379 110.024 183.495C107.602 188.61 103.718 192.893 98.8625 195.801C94.007 198.71 88.3982 200.114 82.7451 199.835C77.092 199.556 71.6485 197.608 67.1027 194.236C62.5568 190.864 59.1128 186.219 57.206 180.89C55.2993 175.561 55.0153 169.786 56.3901 164.296C57.7648 158.806 60.7366 153.846 64.9297 150.044C65.3876 149.624 65.8837 149.233 66.3321 148.852C66.2821 148.816 66.2343 148.778 66.189 148.737C63.0999 146.011 60.637 142.649 58.969 138.882C57.301 135.114 56.4674 131.031 56.5254 126.911C56.5834 122.792 57.5316 118.733 59.305 115.014C61.0784 111.295 63.635 108.004 66.7996 105.366C66.5897 105.204 66.3894 105.032 66.189 104.851C61.8259 100.965 58.7567 95.8362 57.3936 90.1546C56.0306 84.473 56.4391 78.5103 58.5642 73.0676C60.6893 67.6249 64.4293 62.9631 69.2816 59.7082C74.1339 56.4534 79.8661 54.7616 85.7081 54.8601C91.5501 54.9587 97.222 56.8428 101.962 60.2593C106.702 63.6759 110.282 68.4612 112.223 73.9724C114.163 79.4836 114.37 85.4567 112.817 91.0892C111.263 96.7216 108.022 101.744 103.531 105.48C103.741 105.643 103.941 105.814 104.141 105.996C107.262 108.761 109.741 112.174 111.405 115.997C113.069 119.821 113.877 123.961 113.774 128.13C113.67 132.298 112.657 136.393 110.805 140.129C108.954 143.865 106.308 147.151 103.054 149.758Z" fill="#BE7880" stroke="#070707" stroke-width="1.1" stroke-miterlimit="10"/>
<path d="M82.4938 200.475V689.79" stroke="#070707" stroke-width="1.1" stroke-miterlimit="10"/>
<path d="M590.222 268.566H600.955C610.158 268.566 618.984 272.221 625.491 278.729C631.998 285.236 635.654 294.062 635.654 303.265V683.579H555.514V303.265C555.514 298.707 556.411 294.194 558.156 289.984C559.9 285.773 562.457 281.948 565.68 278.725C568.903 275.503 572.729 272.947 576.94 271.204C581.151 269.461 585.664 268.564 590.222 268.566Z" fill="white" stroke="#070707" stroke-miterlimit="10"/>
<path d="M435.14 0H435.465C466.418 0 496.104 12.2961 517.991 34.1834C539.878 56.0706 552.174 85.7561 552.174 116.709V689.781H318.431V116.709C318.431 85.7561 330.727 56.0706 352.614 34.1834C374.502 12.2961 404.187 0 435.14 0Z" fill="white" stroke="#070707" stroke-miterlimit="10"/>
<path d="M595.545 157.686V689.829" stroke="#070707" stroke-width="1.1" stroke-miterlimit="10"/>
<path d="M662.835 393.738V689.829" stroke="#070707" stroke-width="1.1" stroke-miterlimit="10"/>
<path d="M258.011 108.266V689.829" stroke="#070707" stroke-width="1.1" stroke-miterlimit="10"/>
<path d="M193.345 130.867L258.011 212.363L340.556 129.818" stroke="#070707" stroke-width="1.1" stroke-miterlimit="10"/>
<path d="M186.762 86.4565L258.011 157.705L329.259 86.4565" stroke="#070707" stroke-width="1.1" stroke-miterlimit="10"/>
<path d="M93.8753 269.777C93.8753 269.777 49.8267 266.295 31.7569 282.972C13.6871 299.649 -2.70353 297.874 2.18122 284.289C7.06598 270.703 68.0109 212.401 68.0109 212.401C68.0109 212.401 87.4831 217.81 89.6298 228.619C91.7764 239.429 100.802 254.465 117.087 244.543L93.8753 269.777Z" fill="#ECE856" stroke="#070707" stroke-width="1.1" stroke-miterlimit="10"/>
<path d="M534.171 431.023C534.171 431.023 587.665 479.412 592.435 606.664C597.206 733.915 701.789 607.198 720.717 642.918C739.646 678.638 728.531 689.447 728.531 689.447H379.939C379.939 689.447 353.226 567.738 435.188 523.575C517.151 479.412 521.177 490.374 534.171 431.023Z" fill="#202124"/>
<path d="M266.311 596.188C266.311 596.188 260.883 640.075 276.748 658.832C292.614 677.588 290.105 693.912 276.748 688.484C263.392 683.055 207.847 619.582 207.847 619.582C207.847 619.582 214.105 600.367 224.962 598.698C235.82 597.028 244.349 590.369 242.088 571.984L266.311 596.188Z" fill="#ECE856" stroke="#070707" stroke-width="1.1" stroke-miterlimit="10"/>
<path d="M49.8171 690H769.565" stroke="#070707" stroke-width="1.1" stroke-miterlimit="10"/>
<path d="M452.275 596.417C452.466 601.836 457.999 653.346 457.999 655.845C457.999 658.345 512.714 683.408 500.188 688.846C487.661 694.284 435.455 675.489 435.455 675.489V596.417H452.275Z" fill="white" stroke="#070707" stroke-width="1.1" stroke-miterlimit="10"/>
<path d="M390.758 368.131C390.5 367.978 415.563 374.17 409.591 408.936C408.723 414.011 435.188 624.018 435.188 624.018L465.155 622.443L459.822 408.936" fill="white"/>
<path d="M390.758 368.131C390.5 367.978 415.563 374.17 409.591 408.936C408.723 414.011 435.188 624.018 435.188 624.018L465.155 622.443L459.822 408.936" stroke="#070707" stroke-width="1.1" stroke-miterlimit="10"/>
<path d="M455.481 471.179V464.3C455.478 463.771 455.368 463.249 455.156 462.764L447.333 444.98C446.122 442.223 448.392 439.256 451.712 439.256C452.743 439.293 453.756 438.983 454.59 438.376C455.424 437.769 456.03 436.9 456.311 435.907C457.82 429.347 461.497 423.488 466.747 419.276C471.998 415.063 478.516 412.745 485.247 412.695H507.61C508.79 412.633 509.946 413.039 510.827 413.825C511.708 414.612 512.242 415.714 512.314 416.893V471.188C512.242 472.367 511.708 473.47 510.827 474.256C509.946 475.043 508.79 475.449 507.61 475.386H460.184C459.003 475.449 457.846 475.041 456.965 474.253C456.083 473.465 455.55 472.359 455.481 471.179Z" fill="white" stroke="#070707" stroke-width="1.1" stroke-miterlimit="10"/>
<path d="M491.974 412.323L491.821 429.124C491.821 429.124 516.044 432.463 497.249 452.975C478.455 473.487 476.413 533.45 476.413 533.45C476.413 533.45 559.043 657.152 573.259 558.598C587.474 460.045 518.429 406.379 491.974 412.323Z" fill="#202124"/>
<path d="M525.652 475.491C525.652 475.491 464.687 427.054 432.154 461.285C399.621 495.517 394.946 594.509 449.699 562.348C504.452 530.187 474.018 562.615 482.738 582.316C491.458 602.018 605.01 523.108 525.652 475.491Z" fill="#202124"/>
<path d="M390.987 335.512L391.178 512.25C391.178 512.25 381.589 559.858 333.133 541.902C284.677 523.947 88.3992 270.474 88.3992 270.474L113.5 241.624C113.5 241.624 177.203 271.982 189.672 301.481C201.76 330.15 199.909 354.431 224.171 355.213C248.432 355.996 307.173 378.712 307.173 378.712L390.987 335.512Z" fill="#56627B" stroke="#070707" stroke-width="1.1" stroke-miterlimit="10"/>
<path d="M343.675 232.655C346.814 229.517 490.141 223.239 520.48 363.427" stroke="#070707" stroke-width="1.1" stroke-miterlimit="10"/>
<path d="M343.675 232.656C268.105 264.14 309.158 328.901 316.475 343.546C323.793 358.19 296.898 389.96 283.131 410.243C265.004 436.957 241.935 571.87 241.935 571.87L266.263 596.198L390.758 368.179L390.987 235.318C390.987 235.318 352.014 229.164 343.675 232.656Z" fill="#56627B" stroke="#070707" stroke-width="1.1" stroke-miterlimit="10"/>
<path d="M459.803 387.489L631.37 487.912L649.154 468.039L520.719 363.389L484.808 334.128L479.676 329.95" fill="white"/>
<path d="M459.803 387.489L631.37 487.912L649.154 468.039L520.719 363.389L484.808 334.128L479.676 329.95" stroke="#070707" stroke-width="1.1" stroke-miterlimit="10"/>
<path d="M648.905 468.135L676.239 499.676L687.754 501.499C694.7 502.596 702.285 502.949 708.248 507.109C714.21 511.268 720.087 519.244 721.766 526.19C721.987 526.818 722.062 527.488 721.984 528.15C721.907 528.811 721.679 529.446 721.318 530.006C720.45 531.074 718.904 531.265 717.502 531.313C704.202 531.723 689.977 526.476 677.432 522.631C672.661 521.162 667.843 519.664 663.121 518.004C662.033 517.632 659.39 515.934 660.488 517.05L631.322 487.999L648.905 468.135Z" fill="white" stroke="#070707" stroke-width="1.1" stroke-miterlimit="10"/>
<path d="M72.934 214.185C72.934 214.185 7.2283 281.179 4.86225 294.326C4.86225 294.326 -3.1518 292.093 3.90819 280.864C10.9682 269.635 67.7057 212.363 67.7057 212.363L72.934 214.185Z" fill="white" stroke="#070707" stroke-width="1.1" stroke-miterlimit="10"/>
<path d="M210.89 612.407C210.89 612.407 269.956 683.007 286.852 686.346C286.852 686.346 283.99 692.318 275.489 687.872C266.988 683.427 208.066 619.81 208.066 619.81L210.89 612.407Z" fill="#FDFDFB" stroke="#070707" stroke-width="1.1" stroke-miterlimit="10"/>
<path d="M117.002 689.475V431.07" stroke="#070707" stroke-width="1.1" stroke-miterlimit="10"/>
<path d="M49.8171 393.747L117.002 487.912L117.116 560.401L59.2813 487.855L49.8171 393.747Z" fill="#BF6C2B" stroke="#070707" stroke-width="1.1" stroke-miterlimit="10"/>
<path d="M117.116 468.135L146.558 414.25L187.039 408.993V444.217L117.116 468.135Z" fill="white" stroke="#070707" stroke-width="1.1" stroke-miterlimit="10"/>
<path d="M276.94 241.805C286.814 241.805 294.818 233.8 294.818 223.926C294.818 214.051 286.814 206.047 276.94 206.047C267.065 206.047 259.061 214.051 259.061 223.926C259.061 233.8 267.065 241.805 276.94 241.805Z" fill="#BE7880" stroke="#070707" stroke-width="1.1" stroke-miterlimit="10"/>
<path d="M595.545 187.69H427.832C427.832 187.69 455.691 246.536 525.613 253.892C595.536 261.248 595.545 329.949 595.545 329.949V187.69Z" fill="#BE7880" stroke="#070707" stroke-width="1.1" stroke-miterlimit="10"/>
<path d="M479.857 196.592C479.857 196.592 481.431 225.5 535.058 232.846C588.686 240.193 595.526 282.114 595.526 282.114V187.663H480.792L479.857 196.592Z" fill="#BF6C2B" stroke="#070707" stroke-width="1.1" stroke-miterlimit="10"/>
<path d="M595.545 187.69H763.211C763.211 187.69 735.352 246.536 665.43 253.892C595.507 261.248 595.507 329.949 595.507 329.949L595.545 187.69Z" fill="#BE7880" stroke="#070707" stroke-width="1.1" stroke-miterlimit="10"/>
<path d="M711.205 196.592C711.205 196.592 709.631 225.5 656.004 232.846C602.376 240.193 595.545 282.114 595.545 282.114V187.663H710.27L711.205 196.592Z" fill="#BF6C2B" stroke="#070707" stroke-width="1.1" stroke-miterlimit="10"/>
<path d="M595.545 176.614C605.999 176.614 614.474 168.14 614.474 157.686C614.474 147.232 605.999 138.757 595.545 138.757C585.091 138.757 576.617 147.232 576.617 157.686C576.617 168.14 585.091 176.614 595.545 176.614Z" fill="#BF6C2B" stroke="#070707" stroke-width="1.1" stroke-miterlimit="10"/>
<path d="M595.546 193.435C615.289 193.435 631.294 177.43 631.294 157.686C631.294 137.943 615.289 121.938 595.546 121.938C575.802 121.938 559.797 137.943 559.797 157.686C559.797 177.43 575.802 193.435 595.546 193.435Z" stroke="#070707" stroke-width="2.08" stroke-miterlimit="10"/>
<path d="M390.796 234.907C394.946 236.129 406.395 381.059 406.395 381.059C406.395 381.059 402.75 373.016 390.825 368.084L390.796 234.907Z" fill="#070707"/>
<path d="M514.823 342.591C514.823 342.591 519.908 361.033 483.053 332.764L520.719 363.523C520.719 363.523 517.618 350.824 514.823 342.591Z" fill="#070707"/>
<path d="M391.035 381.059L383.259 396.734C366.239 432.034 327.819 516.62 336.444 542.99C327.313 539.358 318.926 534.084 311.695 527.43L306.219 522.927L390.977 368.284L391.035 381.059Z" fill="#070707"/>
<path d="M634.862 484.02L663.932 513.757L719.391 531.074C719.391 531.074 711.005 531.026 707.198 530.606C703.392 530.186 671.326 521.562 660.641 517.039L631.456 487.893L634.862 484.02Z" fill="#070707"/>
<path d="M241.801 572.156L266.464 596.007L265.452 609.65C265.452 609.65 248.785 579.588 241.801 577.909C242.303 576.024 242.303 574.041 241.801 572.156Z" fill="#070707"/>
<path d="M108.186 247.682C108.186 247.682 101.231 249.046 97.3291 243.723L68.9746 270.179L89.1719 269.52L108.186 247.682Z" fill="#070707"/>
<path d="M59.3101 487.894C59.3101 487.894 116.439 571.335 116.849 487.894L117.259 560.24L59.3101 487.894Z" fill="#070707"/>
<path d="M146.444 413.916C146.663 413.563 117.259 468.164 117.259 468.164L187.134 444.312C187.134 444.312 107.776 474.746 146.444 413.916Z" fill="#070707"/>
<path d="M563.518 267.059C563.518 267.059 593.094 244.811 627.573 267.059C609.828 281.42 598.227 302.008 595.135 324.627C595.135 324.627 588.466 282.553 563.518 267.059Z" fill="#070707"/>
<path d="M579.355 147.869C579.355 147.869 585.223 179.009 613.701 163.076C613.701 163.076 610.104 176.338 595.717 176.748C595.698 176.748 568.355 173.246 579.355 147.869Z" fill="#070707"/>
<path d="M266.874 209.224C266.874 209.224 256.427 237.578 291.04 234.907C291.04 234.907 279.945 247.834 265.395 237.569C265.395 237.569 249.615 225.252 266.874 209.224Z" fill="#070707"/>
<path d="M57.2113 77.0302C57.2113 77.0302 66.6088 103.992 81.8736 103.038C81.8736 103.038 48.4817 128.797 76.1493 147.878C76.1493 147.878 56.5912 183.302 76.8648 198.977C76.8648 198.977 59.2721 197.603 55.7898 173.218C55.7898 173.218 54.2061 157.419 66.6088 148.832C66.6088 148.832 55.5036 142.287 56.7629 122.663C56.7629 122.663 57.0682 114.486 66.6088 104.946C66.5611 104.946 55.3891 99.6985 57.2113 77.0302Z" fill="#070707"/>
<path d="M200.615 521.342C210.489 521.342 218.494 513.338 218.494 503.463C218.494 493.589 210.489 485.584 200.615 485.584C190.741 485.584 182.736 493.589 182.736 503.463C182.736 513.338 190.741 521.342 200.615 521.342Z" fill="#BF6C2B" stroke="#070707" stroke-width="1.1" stroke-miterlimit="10"/>
<path d="M190.55 488.761C190.55 488.761 180.103 517.116 214.716 514.444C214.716 514.444 203.62 527.372 189.071 517.106C189.071 517.106 173.291 504.789 190.55 488.761Z" fill="#070707"/>
<path d="M185.35 593.851C195.225 593.851 203.229 585.846 203.229 575.972C203.229 566.098 195.225 558.093 185.35 558.093C175.476 558.093 167.471 566.098 167.471 575.972C167.471 585.846 175.476 593.851 185.35 593.851Z" fill="#BF6C2B" stroke="#070707" stroke-width="1.1" stroke-miterlimit="10"/>
<path d="M175.285 561.27C175.285 561.27 164.838 589.624 199.451 586.953C199.451 586.953 188.355 599.88 173.806 589.615C173.806 589.615 158.026 577.298 175.285 561.27Z" fill="#070707"/>
<path d="M186.543 689.303V593.898" stroke="#070707" stroke-width="1.2" stroke-miterlimit="10"/>
<path d="M89.4583 622.043H157.196C157.196 622.043 186.772 622.997 186.772 687.873C186.772 687.873 114.264 689.781 116.172 659.251C116.172 659.251 76.1015 651.619 89.4583 622.043Z" fill="#BF6C2B" stroke="#070707" stroke-width="1.1" stroke-miterlimit="10"/>
<path d="M284.276 622.043H216.538C216.538 622.043 186.962 622.997 186.962 687.873C186.962 687.873 259.471 689.781 257.562 659.251C257.562 659.251 297.633 651.619 284.276 622.043Z" fill="white" stroke="#070707" stroke-width="1.1" stroke-miterlimit="10"/>
</svg>
